<svg xmlns="http://www.w3.org/2000/svg" xml:space="preserve" viewBox="0 0 288 104">
  <path fill="#05192d" fill-rule="evenodd" d="M81.154 11.766v14.74c-5.489-5.165-14.093-4.985-19.362.405-5.269 5.39-5.269 14.012 0 19.402 5.269 5.39 13.873 5.57 19.362.405v3.053h4.368V11.766h-4.368zm-9.472 34.319c-3.826 0-7.274-2.309-8.738-5.85s-.654-7.617 2.051-10.326a9.443 9.443 0 0 1 10.308-2.052 9.475 9.475 0 0 1 5.837 8.756 9.48 9.48 0 0 1-2.769 6.701 9.445 9.445 0 0 1-6.688 2.774v-.003zm122.431-5.848a9.458 9.458 0 0 0 8.74 5.848v.003a9.446 9.446 0 0 0 6.687-2.775 9.48 9.48 0 0 0 2.768-6.7 9.475 9.475 0 0 0-5.837-8.756c-3.534-1.467-7.603-.657-10.308 2.053s-3.514 6.787-2.05 10.327zm22.58-3.624V22.892h-4.371v3.614c-5.489-5.165-14.093-4.985-19.362.405-5.27 5.39-5.27 14.012 0 19.402 5.269 5.39 13.873 5.57 19.362.405v3.053h4.371V36.613zm36.69-13.735c-.752 0-1.45.392-1.841 1.035l-10.624 17.462c0-.443-.002-1.769-.006-3.521v-.041c-.008-3.419-.018-8.436-.018-11.691a3.243 3.243 0 0 0-.948-2.296 3.23 3.23 0 0 0-2.293-.948h-.849c-.752 0-1.449.392-1.841 1.035l-10.681 17.564.102-18.547v-.055h-4.462v26.887h4.28l.121-.201c2.329-3.879 9.728-15.993 12.139-19.891v17.945a2.16 2.16 0 0 0 2.155 2.162h.912a2.157 2.157 0 0 0 1.839-1.035l1.095-1.793.001-.001c2.934-4.802 8.746-14.316 10.536-17.214v20.043h4.458V26.122a3.244 3.244 0 0 0-.951-2.299 3.231 3.231 0 0 0-2.298-.945h-.826zm-64.81 21.901a13.822 13.822 0 0 1-15.614 4.975 13.86 13.86 0 0 1-9.406-13.441 13.857 13.857 0 0 1 9.991-13.009 13.825 13.825 0 0 1 15.379 5.664l-4.194 2.184a9.177 9.177 0 0 0-10.039-3.512 9.198 9.198 0 0 0-6.621 8.335 9.201 9.201 0 0 0 5.669 9.012 9.173 9.173 0 0 0 10.362-2.388l4.473 2.18zm76.152-7.578c.299 5.005 4.439 8.911 9.444 8.909l-.005-.008c5.15.001 9.354-4.126 9.458-9.285.103-5.159-3.932-9.452-9.078-9.658-5.146-.206-9.511 3.751-9.819 8.901v1.141zm9.439-14.439a13.77 13.77 0 0 0-9.439 3.735v-3.606h-4.365v37.853h4.365V46.767a13.818 13.818 0 0 0 16.632 1.703 13.873 13.873 0 0 0 6.128-15.583 13.841 13.841 0 0 0-13.321-10.12v-.005zM126.012 43.623V27.091h7.76v-4.246h-7.76v-7.368h-4.374v7.368h-4.717v4.246h4.728v16.531a6.155 6.155 0 0 0 6.14 6.151h5.085V45.4h-5.087a1.778 1.778 0 0 1-1.775-1.777zm21.186 2.462a9.457 9.457 0 0 1-8.738-5.85 9.487 9.487 0 0 1 2.051-10.326 9.444 9.444 0 0 1 10.308-2.052 9.475 9.475 0 0 1 5.837 8.756 9.487 9.487 0 0 1-2.77 6.7 9.45 9.45 0 0 1-6.688 2.775v-.003zm9.469-19.579v-3.608l4.37-.006v26.879h-4.37v-3.053c-5.489 5.165-14.093 4.985-19.363-.405-5.269-5.39-5.269-14.012 0-19.402 5.27-5.39 13.874-5.57 19.363-.405zm-55.551 19.582c-5.223 0-9.457-4.242-9.457-9.475s4.234-9.475 9.457-9.475c5.224 0 9.458 4.242 9.458 9.475.001 2.513-.995 4.924-2.769 6.701s-4.18 2.775-6.689 2.774zm9.469-19.585v-3.606l4.371-.006V49.77h-4.371v-3.053c-5.489 5.164-14.093 4.983-19.361-.407-5.269-5.39-5.269-14.011 0-19.401 5.268-5.389 13.872-5.57 19.361-.406z" clip-rule="evenodd"/>
  <path fill="#05192d" d="M227.509 88.647c0 2.466-1.599 3.833-3.632 3.833s-3.6-1.4-3.6-3.733v-2.3h-3.966v2.3c.033 4.433 3.566 7.499 7.532 7.499 4.166 0 7.633-3.299 7.633-7.599V72.05h-3.967v16.597zm15.651 7.599h.033c4.733 0 8.399-3.966 8.399-8.799 0-4.833-3.666-8.799-8.399-8.799h-.033c-4.733 0-8.465 3.933-8.465 8.799s3.732 8.799 8.465 8.799zm0-3.933c-2.566 0-4.466-2.2-4.466-4.866 0-2.666 1.9-4.866 4.466-4.866h.033c2.533 0 4.433 2.233 4.433 4.866 0 2.666-1.9 4.866-4.433 4.866h-.033zm11.849 3.733h3.966V93.58c1.2 1.833 3 2.666 5.2 2.666 4.032 0 7.499-3.699 7.499-8.799 0-5.099-3.467-8.799-7.499-8.799-2.2 0-4.066 1.067-5.2 2.7V72.05h-3.966v23.996zm8.266-3.699c-2.533 0-4.3-2.2-4.3-4.899s1.767-4.866 4.3-4.866 4.432 2.166 4.432 4.866-1.899 4.899-4.432 4.899zm10.562-2.033c.067 2.766 2.267 5.933 6.633 5.933 3.799 0 6.432-2.133 6.499-5.466.066-2.433-1.6-4.299-4.966-5.066l-2.233-.533c-1.033-.233-1.567-.7-1.567-1.533 0-1.033.9-1.766 2.267-1.766 1.366 0 2.366.966 2.433 2.333h3.599c0-2.666-2.3-5.566-5.966-5.566-3.666 0-6.265 2.1-6.265 5.033 0 2.6 1.533 4.233 4.399 4.933l2.033.5c1.6.367 2.366.833 2.366 1.866 0 1.1-1.033 1.833-2.433 1.833-1.6 0-2.733-1.033-2.799-2.5h-4z"/>
  <path fill="#05192d" fill-rule="evenodd" d="M20.428 15.165v13.862l-14.683 8.39V6.722l14.683 8.443zm4.745 29.126V31.795l19.671-11.239-4.781-2.761-14.881 8.506V13.784a2.388 2.388 0 0 0-1.193-2.065L6.076 1.424l-.143-.077a3.426 3.426 0 0 0-3.324.178A3.44 3.44 0 0 0 1 4.444v35.244a3.436 3.436 0 0 0 1.61 2.917 3.426 3.426 0 0 0 3.323.177l.138-.072 14.357-8.205v11.167a2.39 2.39 0 0 0 1.201 2.071l18.4 10.491 4.784-2.761-19.64-11.182z" clip-rule="evenodd"/>
</svg>
