<svg xmlns="http://www.w3.org/2000/svg" xml:space="preserve" viewBox="0 0 40 40">
  <path fill="#000" fill-rule="evenodd" clip-rule="evenodd" d="M21.868 0v16.095a4.328 4.328 0 1 1-3.645-.043v-4.189a8.392 8.392 0 0 0 1.832 16.583 8.392 8.392 0 0 0 7.128-12.823l3.016-2.05a11.978 11.978 0 0 1 1.892 6.481c0 6.648-5.389 12.036-12.036 12.036-6.648 0-12.037-5.389-12.037-12.036 0-6.025 4.427-11.016 10.205-11.898V3.74C10.026 4.626 3.645 11.568 3.645 20c0 9.033 7.323 16.355 16.355 16.355 9.033 0 16.355-7.322 16.355-16.355a16.27 16.27 0 0 0-2.597-8.846l3.005-2.042A19.782 19.782 0 0 1 40 20c0 11.045-8.954 20-20 20S0 31.046 0 20 8.954 0 20 0h1.868z"/>
</svg>
