<svg xmlns="http://www.w3.org/2000/svg" xml:space="preserve" viewBox="0 0 183 36">
  <path fill="#fff" d="M64.305 19.62a66.8 66.8 0 0 0-.81 3.51h-.027c-.243-1.053-.621-2.484-.891-3.51L59.553 8.685h-3.294L53.262 19.62c-.27 1.026-.648 2.457-.891 3.51h-.027c-.189-1.08-.54-2.484-.81-3.51l-2.97-10.935H45.27l5.427 19.44h3.294l2.997-10.908c.297-1.08.648-2.511.918-3.618h.027l.891 3.618 3.024 10.908h3.294l5.4-19.44h-3.267l-2.97 10.935zm12.386 8.667h.027c3.834 0 6.804-3.213 6.804-7.128s-2.97-7.128-6.804-7.128h-.027c-3.834 0-6.858 3.186-6.858 7.128s3.024 7.128 6.858 7.128zm0-3.186c-2.079 0-3.618-1.782-3.618-3.942s1.539-3.942 3.618-3.942h.027c2.052 0 3.591 1.809 3.591 3.942 0 2.16-1.539 3.942-3.591 3.942h-.027zm16.1-11.07c-1.647 0-2.97.702-3.753 1.998v-1.836h-3.213v13.932h3.213v-7.182c0-2.619 1.404-3.78 3.483-3.78.783 0 1.377.108 1.701.162v-3.186a8.547 8.547 0 0 0-1.431-.108zm16.328 14.094-5.67-8.262 5.049-5.67h-3.915l-5.238 5.886V8.685h-3.213v19.44h3.213v-4.077l1.836-2.025 4.212 6.102h3.726zm.589-4.644c.054 2.241 1.836 4.806 5.373 4.806 3.078 0 5.211-1.728 5.265-4.428.054-1.971-1.296-3.483-4.023-4.104l-1.809-.432c-.837-.189-1.269-.567-1.269-1.242 0-.837.729-1.431 1.836-1.431s1.917.783 1.971 1.89h2.916c0-2.16-1.863-4.509-4.833-4.509s-5.076 1.701-5.076 4.077c0 2.106 1.242 3.429 3.564 3.996l1.647.405c1.296.297 1.917.675 1.917 1.512 0 .891-.837 1.485-1.971 1.485-1.296 0-2.214-.837-2.268-2.025h-3.24zm16.416 10.152V26.1a5.169 5.169 0 0 0 4.212 2.187c3.267 0 6.075-2.997 6.075-7.128s-2.808-7.128-6.075-7.128c-1.782 0-3.24.648-4.212 2.16v-1.998h-3.213v19.44h3.213zm3.483-16.443c2.052 0 3.591 1.782 3.591 3.969s-1.539 3.942-3.591 3.942c-2.052 0-3.483-1.755-3.483-3.942s1.431-3.969 3.483-3.969zm18.859-1.053c-.972-1.269-2.457-2.106-4.239-2.106-3.348 0-6.048 3.159-6.048 7.128s2.7 7.128 6.048 7.128c1.782 0 3.213-.783 4.239-2.079v1.917h3.213V14.193h-3.213v1.944zm-3.51 8.964c-2.025 0-3.537-1.755-3.537-3.942s1.512-3.942 3.537-3.942c1.998 0 3.51 1.755 3.51 3.942s-1.512 3.942-3.51 3.942zm22.188-5.913c-.162-1.998-2.187-5.157-6.291-5.157-3.834 0-6.885 3.186-6.885 7.128s3.051 7.128 6.885 7.128c3.78 0 6.102-3.24 6.237-5.157h-3.213c-.297 1.161-1.539 2.133-3.024 2.133-2.187 0-3.645-1.944-3.645-4.104s1.404-4.104 3.645-4.104c1.377 0 2.646.864 2.997 2.133h3.294zm14.867 2.889c.027-.27.054-.648.054-.999 0-3.861-2.808-7.047-6.48-7.047-3.834 0-6.804 3.132-6.804 7.128 0 4.077 2.916 7.128 6.939 7.128 4.374 0 5.913-3.402 6.102-4.671h-3.267c-.27.783-1.188 1.809-2.835 1.809-2.214 0-3.348-1.485-3.591-3.348h9.882zm-6.426-5.184c1.836 0 2.916 1.269 3.213 2.943h-6.561c.324-1.701 1.458-2.943 3.348-2.943z"/>
  <path fill="#03ef62" fill-rule="evenodd" d="m2.623 8.63 3.115 1.906v16.208c0 1.025 1.117 2.116 1.997 1.588l14.555-8.7c.853-.51.853-1.751 0-2.265l-10.455-6.246H30.73v15.255h-9.463l-3.777 2.639h14.12a1.76 1.76 0 0 0 1.759-1.759V10.241c0-.972-.792-1.759-1.759-1.759H7.497c-.018 0-.057.004-.057.004L4.973 6.988 2.623 8.63zm5.754 16.245 10.662-6.373-10.662-6.378v12.751z" clip-rule="evenodd"/>
</svg>
