<svg xmlns="http://www.w3.org/2000/svg" xml:space="preserve" viewBox="0 0 36 36">
  <path fill="#05192d" d="M17.486 2.494 1.16 12.139c-1.543.911-1.548 3.138-.009 4.058L5.836 19l.019 5.802c0 .821.434 1.585 1.137 2.01l10.489 6.346c.75.453 1.694.453 2.444 0l7.861-4.761v-3.308l-9.083 5.502-10.017-6.063-.014-3.829 8.819 5.271c.746.448 1.68.444 2.425 0l14.939-8.965c1.519-.915 1.529-3.114.014-4.039L24.05 6.382h-.01L7.252 16.546l-3.964-2.374L20.261 4.146h.005m3.779 5.549 8.682 5.28-14.024 8.418-8.701-5.204 14.043-8.494z"/>
</svg>
