<svg xmlns="http://www.w3.org/2000/svg" xml:space="preserve" viewBox="0 0 288 104">
  <path fill="#05192d" fill-rule="evenodd" d="M81.154 11.766v14.74c-5.489-5.165-14.093-4.985-19.362.405-5.269 5.39-5.269 14.012 0 19.402 5.269 5.39 13.873 5.57 19.362.405v3.053h4.368V11.766h-4.368zm-9.472 34.319c-3.826 0-7.274-2.309-8.738-5.85s-.654-7.617 2.051-10.326a9.443 9.443 0 0 1 10.308-2.052 9.475 9.475 0 0 1 5.837 8.756 9.48 9.48 0 0 1-2.769 6.701 9.445 9.445 0 0 1-6.688 2.774v-.003zm122.431-5.848a9.458 9.458 0 0 0 8.74 5.848v.003a9.446 9.446 0 0 0 6.687-2.775 9.48 9.48 0 0 0 2.768-6.7 9.475 9.475 0 0 0-5.837-8.756c-3.534-1.467-7.603-.657-10.308 2.053s-3.514 6.787-2.05 10.327zm22.58-3.624V22.892h-4.371v3.614c-5.489-5.165-14.093-4.985-19.362.405-5.27 5.39-5.27 14.012 0 19.402 5.269 5.39 13.873 5.57 19.362.405v3.053h4.371V36.613zm36.69-13.735c-.752 0-1.45.392-1.841 1.035l-10.624 17.462c0-.443-.002-1.769-.006-3.521v-.041c-.008-3.419-.018-8.436-.018-11.691a3.243 3.243 0 0 0-.948-2.296 3.23 3.23 0 0 0-2.293-.948h-.849c-.752 0-1.449.392-1.841 1.035l-10.681 17.564.102-18.547v-.055h-4.462v26.887h4.28l.121-.201c2.329-3.879 9.728-15.993 12.139-19.891v17.945a2.16 2.16 0 0 0 2.155 2.162h.912a2.157 2.157 0 0 0 1.839-1.035l1.095-1.793.001-.001c2.934-4.802 8.746-14.316 10.536-17.214v20.043h4.458V26.122a3.244 3.244 0 0 0-.951-2.299 3.231 3.231 0 0 0-2.298-.945h-.826zm-64.81 21.901a13.822 13.822 0 0 1-15.614 4.975 13.86 13.86 0 0 1-9.406-13.441 13.857 13.857 0 0 1 9.991-13.009 13.825 13.825 0 0 1 15.379 5.664l-4.194 2.184a9.177 9.177 0 0 0-10.039-3.512 9.198 9.198 0 0 0-6.621 8.335 9.201 9.201 0 0 0 5.669 9.012 9.173 9.173 0 0 0 10.362-2.388l4.473 2.18zm76.152-7.578c.299 5.005 4.439 8.911 9.444 8.909l-.005-.008c5.15.001 9.354-4.126 9.458-9.285.103-5.159-3.932-9.452-9.078-9.658-5.146-.206-9.511 3.751-9.819 8.901v1.141zm9.439-14.439a13.77 13.77 0 0 0-9.439 3.735v-3.606h-4.365v37.853h4.365V46.767a13.818 13.818 0 0 0 16.632 1.703 13.873 13.873 0 0 0 6.128-15.583 13.841 13.841 0 0 0-13.321-10.12v-.005zM126.012 43.623V27.091h7.76v-4.246h-7.76v-7.368h-4.374v7.368h-4.717v4.246h4.728v16.531a6.155 6.155 0 0 0 6.14 6.151h5.085V45.4h-5.087a1.778 1.778 0 0 1-1.775-1.777zm21.186 2.462a9.457 9.457 0 0 1-8.738-5.85 9.487 9.487 0 0 1 2.051-10.326 9.444 9.444 0 0 1 10.308-2.052 9.475 9.475 0 0 1 5.837 8.756 9.487 9.487 0 0 1-2.77 6.7 9.45 9.45 0 0 1-6.688 2.775v-.003zm9.469-19.579v-3.608l4.37-.006v26.879h-4.37v-3.053c-5.489 5.165-14.093 4.985-19.363-.405-5.269-5.39-5.269-14.012 0-19.402 5.27-5.39 13.874-5.57 19.363-.405zm-55.551 19.582c-5.223 0-9.457-4.242-9.457-9.475s4.234-9.475 9.457-9.475c5.224 0 9.458 4.242 9.458 9.475.001 2.513-.995 4.924-2.769 6.701s-4.18 2.775-6.689 2.774zm9.469-19.585v-3.606l4.371-.006V49.77h-4.371v-3.053c-5.489 5.164-14.093 4.983-19.361-.407-5.269-5.39-5.269-14.011 0-19.401 5.268-5.389 13.872-5.57 19.361-.406z" clip-rule="evenodd"/>
  <path fill="#05192d" d="M107.362 95.93c5.799 0 9.732-3.866 10.699-8.432h-4.166c-.934 2.766-3.567 4.466-6.533 4.466-4.532 0-8.099-3.7-8.099-8.232 0-4.566 3.567-8.232 8.099-8.232 2.766 0 5.666 1.9 6.466 4.499h4.166c-.9-4.199-4.833-8.465-10.632-8.465-6.732 0-12.098 5.466-12.098 12.198s5.366 12.198 12.098 12.198zm29.145-7.665c.034-.333.067-.8.067-1.233 0-4.766-3.466-8.699-7.999-8.699-4.733 0-8.399 3.866-8.399 8.799 0 5.033 3.6 8.799 8.566 8.799 5.399 0 7.299-4.199 7.532-5.766h-4.033c-.333.967-1.466 2.233-3.499 2.233-2.733 0-4.133-1.833-4.433-4.133h12.198zm-7.932-6.399c2.266 0 3.599 1.566 3.966 3.633h-8.099c.4-2.1 1.8-3.633 4.133-3.633zm19.601-3.533c-2.033 0-3.666.867-4.633 2.466v-2.266h-3.966V95.73h3.966v-8.865c0-3.233 1.733-4.666 4.3-4.666.966 0 1.699.133 2.099.2v-3.933c-.4-.067-.966-.133-1.766-.133zm11.437 13.931c-1.234 0-2.1-.533-2.1-1.9v-8.366h4.233v-3.466h-4.233v-4.866h-3.966v4.866h-2.866v3.466h2.866v8.432c0 3.766 2.033 5.499 5.266 5.499 1.066 0 2.166-.3 2.933-.533v-3.633c-.5.201-1.367.501-2.133.501zm7.115-15.898c1.533 0 2.833-1.2 2.833-2.733 0-1.533-1.233-2.766-2.833-2.766-1.5 0-2.733 1.233-2.733 2.766a2.724 2.724 0 0 0 2.733 2.733zm1.967 2.167h-3.967V95.73h3.967V78.533zm9.678 0V77.2c0-1.433.967-2 2.167-2 .8 0 1.533.2 1.866.367v-3.599c-.467-.167-1.633-.433-3.033-.433-3.133 0-4.966 2.333-4.966 5.599v1.4h-2.766V82h2.766v13.73h3.966V81.999h4.266v-3.466h-4.266zm8.853-2.167c1.533 0 2.833-1.2 2.833-2.733 0-1.533-1.233-2.766-2.833-2.766-1.5 0-2.733 1.233-2.733 2.766a2.724 2.724 0 0 0 2.733 2.733zm1.966 2.167h-3.966V95.73h3.966V78.533zm19.417 6.165c-.2-2.466-2.699-6.366-7.765-6.366-4.733 0-8.499 3.933-8.499 8.799s3.766 8.799 8.499 8.799c4.666 0 7.532-3.999 7.698-6.366h-3.966c-.366 1.433-1.899 2.633-3.732 2.633-2.7 0-4.5-2.4-4.5-5.066s1.733-5.066 4.5-5.066c1.699 0 3.266 1.067 3.699 2.633h4.066zm14.901-3.766c-1.2-1.566-3.033-2.6-5.233-2.6-4.132 0-7.465 3.899-7.465 8.799s3.333 8.799 7.465 8.799c2.2 0 3.967-.966 5.233-2.566v2.366h3.966V78.533h-3.966v2.399zm-4.333 11.065c-2.499 0-4.366-2.166-4.366-4.866 0-2.7 1.867-4.866 4.366-4.866 2.467 0 4.333 2.166 4.333 4.866 0 2.7-1.866 4.866-4.333 4.866zm19.797.267c-1.233 0-2.1-.533-2.1-1.9v-8.366h4.233v-3.466h-4.233v-4.866h-3.966v4.866h-2.866v3.466h2.866v8.432c0 3.766 2.033 5.499 5.266 5.499 1.067 0 2.167-.3 2.933-.533v-3.633c-.5.201-1.366.501-2.133.501zm7.116-15.898c1.533 0 2.833-1.2 2.833-2.733 0-1.533-1.234-2.766-2.833-2.766-1.5 0-2.733 1.233-2.733 2.766a2.724 2.724 0 0 0 2.733 2.733zm1.966 2.167h-3.966V95.73h3.966V78.533zm11.618 17.397h.034c4.732 0 8.398-3.966 8.398-8.799 0-4.833-3.666-8.799-8.398-8.799h-.034c-4.733 0-8.465 3.933-8.465 8.799s3.732 8.799 8.465 8.799zm0-3.933c-2.566 0-4.466-2.2-4.466-4.866s1.9-4.866 4.466-4.866h.034c2.532 0 4.432 2.233 4.432 4.866 0 2.666-1.9 4.866-4.432 4.866h-.034zm20.189-13.664c-2 0-3.867.966-4.866 2.533v-2.333h-3.866V95.73h3.966v-9.765c0-2.133 1.599-3.699 3.566-3.699 2 0 3.566 1.466 3.566 3.599v9.865h3.966V85.532c0-4.733-2.5-7.199-6.332-7.199z"/>
  <path fill="#05192d" fill-rule="evenodd" d="M20.428 15.165v13.862l-14.683 8.39V6.722l14.683 8.443zm4.745 29.126V31.795l19.671-11.239-4.781-2.761-14.881 8.506V13.784a2.388 2.388 0 0 0-1.193-2.065L6.076 1.424l-.143-.077a3.426 3.426 0 0 0-3.324.178A3.44 3.44 0 0 0 1 4.444v35.244a3.436 3.436 0 0 0 1.61 2.917 3.426 3.426 0 0 0 3.323.177l.138-.072 14.357-8.205v11.167a2.39 2.39 0 0 0 1.201 2.071l18.4 10.491 4.784-2.761-19.64-11.182z" clip-rule="evenodd"/>
</svg>
