<svg xmlns="http://www.w3.org/2000/svg" xml:space="preserve" viewBox="0 0 103 36">
  <path fill="#fff" d="M54.747 22.131c0 1.998-1.296 3.105-2.943 3.105s-2.916-1.134-2.916-3.024v-1.863h-3.213v1.863c.027 3.591 2.889 6.075 6.102 6.075 3.375 0 6.183-2.673 6.183-6.156V8.685h-3.213v13.446zm12.532 6.156h.027c3.834 0 6.804-3.213 6.804-7.128s-2.97-7.128-6.804-7.128h-.027c-3.834 0-6.858 3.186-6.858 7.128s3.024 7.128 6.858 7.128zm0-3.186c-2.079 0-3.618-1.782-3.618-3.942s1.539-3.942 3.618-3.942h.027c2.052 0 3.591 1.809 3.591 3.942 0 2.16-1.539 3.942-3.591 3.942h-.027zm9.452 3.024h3.213v-1.998c.972 1.485 2.43 2.16 4.212 2.16 3.267 0 6.075-2.997 6.075-7.128s-2.808-7.128-6.075-7.128a5.067 5.067 0 0 0-4.212 2.187V8.685h-3.213v19.44zm6.696-2.997c-2.052 0-3.483-1.782-3.483-3.969s1.431-3.942 3.483-3.942 3.591 1.755 3.591 3.942-1.539 3.969-3.591 3.969zm8.41-1.647c.054 2.241 1.836 4.806 5.373 4.806 3.078 0 5.211-1.728 5.265-4.428.054-1.971-1.296-3.483-4.023-4.104l-1.809-.432c-.837-.189-1.269-.567-1.269-1.242 0-.837.729-1.431 1.836-1.431s1.917.783 1.971 1.89h2.916c0-2.16-1.863-4.509-4.833-4.509s-5.076 1.701-5.076 4.077c0 2.106 1.242 3.429 3.564 3.996l1.647.405c1.296.297 1.917.675 1.917 1.512 0 .891-.837 1.485-1.971 1.485-1.296 0-2.214-.837-2.268-2.025h-3.24z"/>
  <path fill="#03ef62" fill-rule="evenodd" d="M14.609 11.218h7.259a7.553 7.553 0 0 0-.386-1.355c-.267-.674-.636-1.264-1.132-1.679-.471-.394-1.124-.691-2.103-.691-1.548 0-2.394.751-2.941 1.727-.363.647-.575 1.375-.697 1.998zm10.059 0a10.713 10.713 0 0 0-.618-2.37c-.375-.947-.97-1.979-1.927-2.781-.981-.822-2.267-1.336-3.877-1.336-2.759 0-4.428 1.492-5.35 3.138-.879 1.569-1.113 3.303-1.179 4.129-.092 1.143.835 1.981 1.845 1.981h8.459v9.085l2.762 1.594V13.98h3.18v14.522H8.039v-13.88l-2.762-1.594v15.869a2.367 2.367 0 0 0 2.367 2.367h20.712a2.367 2.367 0 0 0 2.367-2.367V13.585a2.367 2.367 0 0 0-2.367-2.367h-3.688zm-2.603 14.72-.044-.025v.025h.044z" clip-rule="evenodd"/>
</svg>
