<svg xmlns="http://www.w3.org/2000/svg" xml:space="preserve" viewBox="0 0 18 18">
  <path fill="#000" fill-rule="evenodd" clip-rule="evenodd" d="M13.2 13.932a3.654 3.654 0 0 0 1.032-3.109 25.039 25.039 0 0 1-.064-.478c1.717-1.966 3.3-5.07 3.451-7.952a1.827 1.827 0 0 0-1.92-1.92C12.825.624 9.727 2.202 7.764 3.91a18.361 18.361 0 0 1-.52-.065A3.654 3.654 0 0 0 4.17 4.882L2.882 6.171C.688 8.364.991 8.667 3.815 9.253l2.334.467c.283.522.588.952.929 1.293.342.342.771.646 1.294.929l.467 2.335c.546 2.784.888 3.127 3.082.933l1.279-1.278zM8.478 5.74c1.722-1.722 4.592-3.3 7.318-3.444-.143 2.726-1.722 5.596-3.444 7.318-.082.082-.058.573.073 1.472a1.824 1.824 0 0 1-.516 1.554l-1.279 1.279-.646-3.228c-.75-.319-1.288-.642-1.614-.969-.326-.326-.649-.864-.969-1.614l-3.228-.646 1.289-1.289a1.826 1.826 0 0 1 1.537-.518c.918.125 1.411.153 1.479.085zm4.505 1.413a1.37 1.37 0 1 1-1.937-1.936 1.37 1.37 0 0 1 1.937 1.936zM2.787 12.514a.1.1 0 0 0-.008.184l.281.132c.437.205.623.74.385 1.107l-.459.708c-.117.181.096.394.277.277l.708-.459c.367-.238.901-.052 1.107.385l.132.281a.1.1 0 0 0 .184-.008l.577-1.569c.691.322 1.02 1.12.757 1.835l-.636 1.728c-.215.584-1.063.536-1.351-.077l-.522-1.111-2.652 1.493c-.642.416-1.495-.437-1.078-1.079l1.493-2.653-1.111-.522c-.613-.288-.662-1.136-.077-1.351l1.728-.636a1.466 1.466 0 0 1 1.835.757l-1.57.578z"/>
</svg>
