<svg xmlns="http://www.w3.org/2000/svg" xml:space="preserve" viewBox="0 0 200 36">
  <path fill="#fff" d="M55.701 28.287c4.698 0 7.884-3.132 8.667-6.831h-3.375c-.756 2.241-2.889 3.618-5.292 3.618-3.672 0-6.561-2.997-6.561-6.669 0-3.699 2.889-6.669 6.561-6.669 2.241 0 4.59 1.539 5.238 3.645h3.375c-.729-3.402-3.915-6.858-8.613-6.858-5.454 0-9.801 4.428-9.801 9.882s4.347 9.882 9.801 9.882zm23.464-6.21c.027-.27.054-.648.054-.999 0-3.861-2.808-7.047-6.48-7.047-3.834 0-6.804 3.132-6.804 7.128 0 4.077 2.916 7.128 6.939 7.128 4.374 0 5.913-3.402 6.102-4.671h-3.267c-.27.783-1.188 1.809-2.835 1.809-2.214 0-3.348-1.485-3.591-3.348h9.882zm-6.426-5.184c1.836 0 2.916 1.269 3.213 2.943h-6.561c.324-1.701 1.458-2.943 3.348-2.943zm15.732-2.862c-1.647 0-2.97.702-3.753 1.998v-1.836h-3.213v13.932h3.213v-7.182c0-2.619 1.404-3.78 3.483-3.78.783 0 1.377.108 1.701.162v-3.186a8.547 8.547 0 0 0-1.431-.108zm9.118 11.286c-.999 0-1.701-.432-1.701-1.539v-6.777h3.429v-2.808h-3.429v-3.942h-3.213v3.942h-2.322v2.808h2.322v6.831c0 3.051 1.647 4.455 4.266 4.455.864 0 1.755-.243 2.376-.432v-2.943c-.405.162-1.107.405-1.728.405zm5.617-12.879c1.242 0 2.295-.972 2.295-2.214s-.999-2.241-2.295-2.241c-1.215 0-2.214.999-2.214 2.241s.999 2.214 2.214 2.214zm1.593 1.755h-3.213v13.932h3.213V14.193zm7.694 0v-1.08c0-1.161.783-1.62 1.755-1.62.648 0 1.242.162 1.512.297V8.874c-.378-.135-1.323-.351-2.457-.351-2.538 0-4.023 1.89-4.023 4.536v1.134h-2.241v2.808h2.241v11.124h3.213V17.001h3.456v-2.808h-3.456zm7.025-1.755c1.242 0 2.295-.972 2.295-2.214s-.999-2.241-2.295-2.241c-1.215 0-2.214.999-2.214 2.241s.999 2.214 2.214 2.214zm1.593 1.755h-3.213v13.932h3.213V14.193zm15.583 4.995c-.162-1.998-2.187-5.157-6.291-5.157-3.834 0-6.885 3.186-6.885 7.128s3.051 7.128 6.885 7.128c3.78 0 6.102-3.24 6.237-5.157h-3.213c-.297 1.161-1.539 2.133-3.024 2.133-2.187 0-3.645-1.944-3.645-4.104s1.404-4.104 3.645-4.104c1.377 0 2.646.864 2.997 2.133h3.294zm11.924-3.051c-.972-1.269-2.457-2.106-4.239-2.106-3.348 0-6.048 3.159-6.048 7.128s2.7 7.128 6.048 7.128c1.782 0 3.213-.783 4.239-2.079v1.917h3.213V14.193h-3.213v1.944zm-3.51 8.964c-2.025 0-3.537-1.755-3.537-3.942s1.512-3.942 3.537-3.942c1.998 0 3.51 1.755 3.51 3.942s-1.512 3.942-3.51 3.942zm15.891.216c-.999 0-1.701-.432-1.701-1.539v-6.777h3.429v-2.808h-3.429v-3.942h-3.213v3.942h-2.322v2.808h2.322v6.831c0 3.051 1.647 4.455 4.266 4.455.864 0 1.755-.243 2.376-.432v-2.943c-.405.162-1.107.405-1.728.405zm5.617-12.879c1.242 0 2.295-.972 2.295-2.214s-.999-2.241-2.295-2.241c-1.215 0-2.214.999-2.214 2.241s.999 2.214 2.214 2.214zm1.593 1.755h-3.213v13.932h3.213V14.193zm9.265 14.094h.027c3.834 0 6.804-3.213 6.804-7.128s-2.97-7.128-6.804-7.128h-.027c-3.834 0-6.858 3.186-6.858 7.128s3.024 7.128 6.858 7.128zm0-3.186c-2.079 0-3.618-1.782-3.618-3.942s1.539-3.942 3.618-3.942h.027c2.052 0 3.591 1.809 3.591 3.942 0 2.16-1.539 3.942-3.591 3.942h-.027zm16.208-11.07c-1.62 0-3.132.783-3.942 2.052v-1.89h-3.132v13.932h3.213v-7.911c0-1.728 1.296-2.997 2.889-2.997 1.62 0 2.889 1.188 2.889 2.916v7.992h3.213v-8.262c0-3.834-2.025-5.832-5.13-5.832z"/>
  <path fill="#03ef62" fill-rule="evenodd" d="M19.423 3.803a10.795 10.795 0 0 0-4.203-.846c-5.992 0-10.861 4.874-10.861 10.861 0 5.987 4.506 10.489 10.184 10.838v6.082c0 1.772 1.935 2.862 3.448 1.944l5.324-2.957 4.87 2.975c1.513.927 3.457-.163 3.457-1.935V17.893l-2.726 1.644v10.416l-4.461-2.726a2.276 2.276 0 0 0-2.299-.041l-4.888 2.748V24.48c4.574-.872 8.14-4.624 8.726-9.299.059-.445.086-.899.086-1.363 0-.377-.15-.718-.4-.963a1.36 1.36 0 0 0-.963-.4h-7.904a2.271 2.271 0 0 0-2.271 2.271v7.2c-4.175-.345-7.459-3.847-7.459-8.108 0-4.483 3.648-8.136 8.136-8.136.798 0 1.57.116 2.299.332l1.905-2.211zm3.814 11.378h-5.969v6.509a8.139 8.139 0 0 0 5.969-6.509z" clip-rule="evenodd"/>
</svg>
