<svg xmlns="http://www.w3.org/2000/svg" xml:space="preserve" viewBox="0 0 114 36">
  <path fill="#fff" d="M50.319 8.685h-3.213v19.44h11.745v-3.213h-8.532V8.685zm22.092 13.392c.027-.27.054-.648.054-.999 0-3.861-2.808-7.047-6.48-7.047-3.834 0-6.804 3.132-6.804 7.128 0 4.077 2.916 7.128 6.939 7.128 4.374 0 5.913-3.402 6.102-4.671h-3.267c-.27.783-1.188 1.809-2.835 1.809-2.214 0-3.348-1.485-3.591-3.348h9.882zm-6.426-5.184c1.836 0 2.916 1.269 3.213 2.943h-6.561c.324-1.701 1.458-2.943 3.348-2.943zm18.534-.756c-.972-1.269-2.457-2.106-4.239-2.106-3.348 0-6.048 3.159-6.048 7.128s2.7 7.128 6.048 7.128c1.782 0 3.213-.783 4.239-2.079v1.917h3.213V14.193h-3.213v1.944zm-3.51 8.964c-2.025 0-3.537-1.755-3.537-3.942s1.512-3.942 3.537-3.942c1.998 0 3.51 1.755 3.51 3.942s-1.512 3.942-3.51 3.942zm17.024-11.07c-1.647 0-2.97.702-3.753 1.998v-1.836h-3.213v13.932h3.213v-7.182c0-2.619 1.404-3.78 3.483-3.78.783 0 1.377.108 1.701.162v-3.186a8.547 8.547 0 0 0-1.431-.108zm10.36 0c-1.62 0-3.132.783-3.942 2.052v-1.89h-3.132v13.932h3.213v-7.911c0-1.728 1.296-2.997 2.889-2.997 1.62 0 2.889 1.188 2.889 2.916v7.992h3.213v-8.262c0-3.834-2.025-5.832-5.13-5.832z"/>
  <path fill="#fff" d="M17.486 2.494 1.16 12.139c-1.543.911-1.548 3.138-.009 4.058L5.836 19l.019 5.801c0 .821.434 1.586 1.137 2.01l10.489 6.346c.75.453 1.694.453 2.444 0l7.861-4.761v-3.308l-9.083 5.502-10.017-6.062-.014-3.829 8.819 5.271c.746.448 1.68.444 2.425 0l14.939-8.965c1.519-.915 1.529-3.114.014-4.039L24.05 6.382h-.01L7.252 16.546l-3.964-2.373L20.261 4.146h.005m3.779 5.549 8.682 5.28-14.024 8.418-8.701-5.204 14.043-8.494z"/>
</svg>
