<svg xmlns="http://www.w3.org/2000/svg" xml:space="preserve" viewBox="0 0 105 28">
  <path fill="#000" fill-rule="evenodd" clip-rule="evenodd" d="M17.344 4.034h3.325a.294.294 0 0 0 .297-.297V.762a.306.306 0 0 0-.297-.297h-3.325a.295.295 0 0 0-.298.297v2.975a.308.308 0 0 0 .298.297zm-5.95 4.27H8.069c-.157 0-.28-.14-.297-.297V5.032c0-.175.14-.297.297-.297h3.325c.175 0 .297.14.297.297v2.975a.305.305 0 0 1-.297.297zm25.969 2.397c-.105-.087-1.05-.805-3.08-.805-.525 0-1.067.052-1.592.14-.36-2.5-2.321-3.794-2.65-4.012a.82.82 0 0 1-.044-.03l-.542-.315-.35.507a7.446 7.446 0 0 0-.962 2.24c-.367 1.522-.14 2.957.63 4.182-.927.525-2.432.648-2.747.665H1.175c-.647 0-1.172.525-1.172 1.173-.035 2.17.332 4.34 1.085 6.387.857 2.24 2.135 3.902 3.78 4.917 1.855 1.137 4.882 1.785 8.295 1.785 1.54 0 3.08-.14 4.602-.42a19.015 19.015 0 0 0 6.02-2.187 16.475 16.475 0 0 0 4.095-3.36c1.977-2.222 3.15-4.707 4.007-6.912h.35c2.152 0 3.482-.858 4.217-1.593a4.667 4.667 0 0 0 1.12-1.645l.158-.455-.369-.262zm10.972-1.382a.997.997 0 0 1 1.033-.962c.28 0 .542.105.752.297.192.193.297.455.297.735v9.52a5.572 5.572 0 0 1-5.67 5.477 5.571 5.571 0 0 1-5.477-5.67c0-1.277.438-2.502 1.225-3.5a5.584 5.584 0 0 1 7.84-.857v-5.04zM46.2 21.936a3.533 3.533 0 0 0 1.855-1.873 3.392 3.392 0 0 0 0-2.677 3.533 3.533 0 0 0-1.855-1.873 3.513 3.513 0 0 0-2.73 0 3.464 3.464 0 0 0-1.837 1.855 3.469 3.469 0 0 0 0 2.712c.35.823.997 1.505 1.837 1.855a3.518 3.518 0 0 0 2.73.001zm6.93-7.157a5.577 5.577 0 0 1 7.875 0c.525.507.945 1.12 1.225 1.802.28.682.42 1.4.42 2.135v.193a5.571 5.571 0 0 1-5.67 5.477 5.571 5.571 0 0 1-5.477-5.67c0-1.47.577-2.887 1.627-3.937zm6.405 6.369c.315-.315.577-.682.752-1.102.368-.84.368-1.82 0-2.712a3.621 3.621 0 0 0-.752-1.102 3.423 3.423 0 0 0-1.103-.753 3.522 3.522 0 0 0-2.73 0c-.84.368-1.505 1.015-1.855 1.855a3.469 3.469 0 0 0 0 2.712 3.5 3.5 0 0 0 1.855 1.855 3.522 3.522 0 0 0 2.73 0 3.629 3.629 0 0 0 1.103-.753zm24.517-6.982c0-.14-.035-.28-.088-.402-.052-.123-.14-.228-.227-.333-.088-.087-.21-.175-.333-.227s-.262-.088-.402-.088c-.193 0-.385.053-.56.158l-5.95 3.867V9.406a1.05 1.05 0 0 0-1.033-1.05 1.05 1.05 0 0 0-1.05 1.032v13.841c0 .28.105.542.297.735.192.21.455.315.735.315a.98.98 0 0 0 .735-.315.964.964 0 0 0 .297-.735v-3.587l1.207-.788 4.602 5.162c.193.175.438.28.7.263.14 0 .28-.017.402-.088.123-.052.228-.122.333-.227.088-.105.175-.21.228-.333.052-.123.087-.262.087-.402 0-.263-.105-.525-.28-.717l-4.27-4.812 4.165-2.712c.282-.174.422-.489.405-.822zM67.9 15.479c-.42.175-.805.438-1.12.753v.007l-.001.005c-.002 0-.006-.008-.016-.029a3.502 3.502 0 0 0 .018 4.935c.332.315.7.577 1.12.752.438.193.892.28 1.365.28.402 0 .822-.07 1.207-.21a3.633 3.633 0 0 0 1.05-.647c.193-.14.42-.21.665-.21h.07c.543.018.98.472.963 1.032 0 .297-.122.577-.332.77a5.585 5.585 0 0 1-3.657 1.347 5.578 5.578 0 0 1-5.547-5.582 5.586 5.586 0 0 1 5.582-5.582 5.255 5.255 0 0 1 3.64 1.347c.245.193.367.49.367.787 0 .28-.105.56-.297.753a.94.94 0 0 1-.753.297c-.245 0-.49-.07-.683-.228a3.695 3.695 0 0 0-1.067-.647 3.503 3.503 0 0 0-1.207-.21c-.475 0-.93.105-1.367.28zm36.818-1.645a1.902 1.902 0 0 0-.7-.42 4.182 4.182 0 0 0-.927-.21 8.55 8.55 0 0 0-.945-.052c-.63 0-1.278.105-1.873.332a5.717 5.717 0 0 0-1.627.91v-.21a1.038 1.038 0 0 0-1.085-.997c-.542.017-.98.455-.997.997v9.082a1.04 1.04 0 0 0 1.085.998c.543-.018.98-.455.997-.998v-4.532c0-.472.088-.927.28-1.365.175-.42.42-.787.753-1.102.315-.315.7-.578 1.103-.752.437-.175.892-.28 1.365-.28.472 0 .927.088 1.365.245.14.07.28.105.437.105a.8.8 0 0 0 .403-.087c.122-.053.227-.123.332-.227a1.047 1.047 0 0 0 .315-.735.9.9 0 0 0-.281-.702zm-14.822-.683a5.682 5.682 0 0 1 5.162 3.43c.262.682.402 1.417.385 2.17a.904.904 0 0 1-.297.735 1.03 1.03 0 0 1-.735.298h-7.875c.105.35.262.7.49.997.21.298.473.56.77.77.298.228.63.385.98.507.368.123.735.175 1.12.175.42.018.822-.052 1.207-.192.368-.123.7-.333.997-.577l.018-.018c0-.012.051-.058.094-.097l.028-.025.009-.008.009-.009c.35-.333.875-.385 1.278-.123.472.333.595.98.262 1.47a.815.815 0 0 1-.228.263l-.035.035a5.586 5.586 0 0 1-9.222-4.235 5.584 5.584 0 0 1 5.583-5.566zm-2.87 3.553c-.228.297-.385.63-.49.997h6.702c-.123-.35-.28-.7-.507-.997a3.556 3.556 0 0 0-1.75-1.278c-.35-.122-.735-.175-1.103-.175s-.752.053-1.102.175c-.35.123-.682.298-.98.508s-.56.472-.77.77zM6.81 12.556H3.485c-.157 0-.28-.123-.297-.297V9.284c0-.175.14-.297.297-.297H6.81c.175 0 .297.14.297.297v2.975c0 .175-.14.297-.297.297zm1.259 0h3.325a.295.295 0 0 0 .297-.297V9.284a.295.295 0 0 0-.297-.297H8.069a.294.294 0 0 0-.297.297v2.975c.017.175.14.297.297.297zm7.998 0h-3.325a.285.285 0 0 1-.298-.297V9.284c0-.175.14-.297.298-.297h3.325c.175 0 .297.14.297.297v2.975c0 .175-.14.297-.297.297zm1.277 0h3.325a.295.295 0 0 0 .297-.297V9.284a.294.294 0 0 0-.297-.297h-3.325a.295.295 0 0 0-.298.297v2.975a.296.296 0 0 0 .298.297zm-4.602-4.252h3.325c.157 0 .297-.14.297-.297V5.032a.294.294 0 0 0-.297-.297h-3.325a.295.295 0 0 0-.298.297v2.975c0 .157.123.297.298.297zm7.927 0h-3.325a.307.307 0 0 1-.298-.297V5.032c0-.175.14-.297.298-.297h3.325c.157 0 .297.14.297.297v2.975a.306.306 0 0 1-.297.297zm4.637 4.252h-3.325c-.157 0-.28-.123-.297-.297V9.284c0-.175.14-.297.297-.297h3.325c.175 0 .298.14.298.297v2.975c0 .175-.14.297-.298.297z"/>
</svg>
