<svg xmlns="http://www.w3.org/2000/svg" viewBox="0 0 38 24" xml:space="preserve">
  <path fill="#000" fill-rule="evenodd" clip-rule="evenodd" d="M23.004 19.52h-3.141V5.283l3.141-.852V19.52zm-15.78 2.156c.118-.251.295-.788.304-1.52.041-3.232.016-9.421.013-11.12l-3.142.852c-.033.283.01 4.72 0 8.188-.006 2.118.001 3.87-.135 4.105-.518.887-1.109-.377-1.537-.681-.532-.4-1.327-.338-1.844.057-.396.302-.524.927-.201 1.326 1.05 1.152 2.905.892 4.303.698 1.027-.169 1.921-.916 2.239-1.905zm4.907-12.393v7.156c-.03.8.746 1.433 1.513 1.426.715-.083 1.265-.695 1.65-1.259V9.283h3.141v10.236h-3.141v-.952c-1.702 1.705-4.927 1.482-6.004-.8a2.916 2.916 0 0 1-.278-1.259V9.283h3.119zm12.564.634 3.141-.852V19.52h-3.141V9.917zm8.753 4.771c.295-.165.599-.314.911-.445l-.012 2.93c-1.143.968-2.466 1.353-2.593-.602.062-.911.98-1.465 1.694-1.883zm.911 4.832H37.5l-.005-7.615a2.561 2.561 0 0 0-.242-1.145c-1.359-2.191-5.088-1.89-7.147-.929-2.118.967-1.596 3.653.836 2.942 1.005-.33.449-1.563 1.007-2.195.686-.663 2.116-.422 2.305.598.166.491.09 1.321.106 1.835-1.333.348-2.789.812-3.987 1.485-1.682.782-2.438 3.14-.93 4.463 1.391 1.131 3.631.981 4.914-.255v.816zM28.185 6.783a2.123 2.123 0 1 1-4.246 0 2.123 2.123 0 0 1 4.246 0zm2.584-4.41a2.123 2.123 0 1 1-4.246 0 2.123 2.123 0 0 1 4.246 0zm2.583 4.41a2.123 2.123 0 1 1-4.246 0 2.123 2.123 0 0 1 4.246 0zm-25.374.002a2.123 2.123 0 1 1-4.246 0 2.123 2.123 0 0 1 4.246 0z"/>
</svg>
